<svg width="500" height="500" viewBox="0 0 500 500" fill="none" xmlns="http://www.w3.org/2000/svg">
<path d="M400 0H100C44.7715 0 0 44.7715 0 100V400C0 455.228 44.7715 500 100 500H400C455.228 500 500 455.228 500 400V100C500 44.7715 455.228 0 400 0Z" fill="#1F284A"/>
<path d="M149.923 137.137V274.923C149.923 330.194 194.729 375 250 375C305.271 375 350.077 330.194 350.077 274.923V137.137C350.077 123.162 343.478 121.057 334.611 131.856C321.454 147.88 302.385 168.661 287.529 174.847C262.32 185.344 237.68 185.344 212.471 174.847C197.615 168.661 178.545 147.88 165.388 131.856C156.522 121.057 149.923 123.162 149.923 137.137ZM217.475 237.395C225.921 237.395 232.721 244.194 232.721 252.641V303.461C232.721 311.907 225.921 318.707 217.475 318.707C209.029 318.707 202.229 311.907 202.229 303.461V252.641C202.229 244.194 209.029 237.395 217.475 237.395ZM282.525 237.395C290.971 237.395 297.771 244.194 297.771 252.641V303.461C297.771 311.907 290.971 318.707 282.525 318.707C274.079 318.707 267.279 311.907 267.279 303.461V252.641C267.279 244.194 274.079 237.395 282.525 237.395Z" fill="white"/>
</svg>
